<mxfile host="app.diagrams.net" modified="2023-12-09T16:50:05.853Z" agent="Mozilla/5.0 (Windows NT 10.0; Win64; x64) AppleWebKit/537.36 (KHTML, like Gecko) Chrome/119.0.0.0 Safari/537.36" etag="CiHBfViuQlxyT9GO2_RL" version="22.1.7" type="github">
  <diagram name="Page-1" id="2YBvvXClWsGukQMizWep">
    <mxGraphModel dx="2350" dy="880" grid="1" gridSize="10" guides="1" tooltips="1" connect="1" arrows="1" fold="1" page="1" pageScale="1" pageWidth="850" pageHeight="1100" math="0" shadow="0">
      <root>
        <mxCell id="0" />
        <mxCell id="1" parent="0" />
        <mxCell id="p7WoEbJchlRS9h8bYFal-6" value="" style="endArrow=none;dashed=1;html=1;rounded=0;fontSize=12;startSize=8;endSize=8;curved=1;entryX=0.5;entryY=1;entryDx=0;entryDy=0;" parent="1" edge="1">
          <mxGeometry width="50" height="50" relative="1" as="geometry">
            <mxPoint x="-760" y="1330" as="sourcePoint" />
            <mxPoint x="-760" y="110" as="targetPoint" />
          </mxGeometry>
        </mxCell>
        <mxCell id="p7WoEbJchlRS9h8bYFal-7" value="" style="endArrow=none;dashed=1;html=1;rounded=0;fontSize=12;startSize=8;endSize=8;curved=1;entryX=0.5;entryY=1;entryDx=0;entryDy=0;" parent="1" edge="1">
          <mxGeometry width="50" height="50" relative="1" as="geometry">
            <mxPoint x="-475.5" y="160" as="sourcePoint" />
            <mxPoint x="-475.5" y="110" as="targetPoint" />
          </mxGeometry>
        </mxCell>
        <mxCell id="p7WoEbJchlRS9h8bYFal-17" value="" style="endArrow=none;dashed=1;html=1;rounded=0;fontSize=12;startSize=8;endSize=8;curved=1;" parent="1" edge="1" target="p7WoEbJchlRS9h8bYFal-27">
          <mxGeometry width="50" height="50" relative="1" as="geometry">
            <mxPoint x="-475" y="1341.60009765625" as="sourcePoint" />
            <mxPoint x="-475" y="280" as="targetPoint" />
          </mxGeometry>
        </mxCell>
        <mxCell id="p7WoEbJchlRS9h8bYFal-18" value="Assistant" style="shape=umlActor;verticalLabelPosition=bottom;verticalAlign=top;html=1;fontSize=16;" parent="1" vertex="1">
          <mxGeometry x="-780" y="45" width="30" height="50" as="geometry" />
        </mxCell>
        <mxCell id="p7WoEbJchlRS9h8bYFal-27" value="Store Manager" style="shape=umlActor;verticalLabelPosition=bottom;verticalAlign=top;html=1;fontSize=16;" parent="1" vertex="1">
          <mxGeometry x="-490" y="40" width="30" height="60" as="geometry" />
        </mxCell>
        <mxCell id="p7WoEbJchlRS9h8bYFal-36" value="Franchise Manager" style="shape=umlActor;verticalLabelPosition=bottom;verticalAlign=top;html=1;fontSize=16;" parent="1" vertex="1">
          <mxGeometry x="-220" y="40" width="30" height="60" as="geometry" />
        </mxCell>
        <mxCell id="gc6M7kXXbNBJsoaqooto-32" value="" style="endArrow=none;dashed=1;html=1;rounded=0;fontSize=12;startSize=8;endSize=8;curved=1;" parent="1" target="p7WoEbJchlRS9h8bYFal-36" edge="1" source="4-8IhBOuxSo1LfB9Gyf2-16">
          <mxGeometry width="50" height="50" relative="1" as="geometry">
            <mxPoint x="-207.5" y="1320" as="sourcePoint" />
            <mxPoint x="-202.5" y="810" as="targetPoint" />
          </mxGeometry>
        </mxCell>
        <mxCell id="WMcf0pYSPStvVH_ctqiE-1" value="Inventory" style="html=1;whiteSpace=wrap;" parent="1" vertex="1">
          <mxGeometry x="20" y="45" width="110" height="50" as="geometry" />
        </mxCell>
        <mxCell id="WMcf0pYSPStvVH_ctqiE-2" value="Command" style="html=1;whiteSpace=wrap;" parent="1" vertex="1">
          <mxGeometry x="250" y="45" width="110" height="50" as="geometry" />
        </mxCell>
        <mxCell id="WMcf0pYSPStvVH_ctqiE-7" value="ConcreteStock&lt;br&gt;CheckStrategy" style="html=1;whiteSpace=wrap;" parent="1" vertex="1">
          <mxGeometry x="1610" y="55" width="110" height="50" as="geometry" />
        </mxCell>
        <mxCell id="WMcf0pYSPStvVH_ctqiE-8" value="" style="endArrow=none;dashed=1;html=1;rounded=0;entryX=0.569;entryY=1.008;entryDx=0;entryDy=0;entryPerimeter=0;" parent="1" edge="1">
          <mxGeometry width="50" height="50" relative="1" as="geometry">
            <mxPoint x="74.91000000000003" y="1154.6" as="sourcePoint" />
            <mxPoint x="74.50000000000017" y="94.99999999999997" as="targetPoint" />
          </mxGeometry>
        </mxCell>
        <mxCell id="WMcf0pYSPStvVH_ctqiE-9" value="" style="endArrow=none;dashed=1;html=1;rounded=0;entryX=0.569;entryY=1.008;entryDx=0;entryDy=0;entryPerimeter=0;" parent="1" edge="1" source="4-8IhBOuxSo1LfB9Gyf2-39">
          <mxGeometry width="50" height="50" relative="1" as="geometry">
            <mxPoint x="304.5" y="1155" as="sourcePoint" />
            <mxPoint x="304.5" y="95" as="targetPoint" />
          </mxGeometry>
        </mxCell>
        <mxCell id="WMcf0pYSPStvVH_ctqiE-14" value="" style="endArrow=none;dashed=1;html=1;rounded=0;entryX=0.569;entryY=1.008;entryDx=0;entryDy=0;entryPerimeter=0;" parent="1" edge="1">
          <mxGeometry width="50" height="50" relative="1" as="geometry">
            <mxPoint x="1670" y="1165" as="sourcePoint" />
            <mxPoint x="1670" y="105" as="targetPoint" />
          </mxGeometry>
        </mxCell>
        <mxCell id="4-8IhBOuxSo1LfB9Gyf2-3" value="" style="endArrow=open;endFill=1;endSize=12;html=1;rounded=0;fontSize=12;curved=1;" edge="1" parent="1">
          <mxGeometry width="160" relative="1" as="geometry">
            <mxPoint x="80" y="180" as="sourcePoint" />
            <mxPoint x="-480" y="180" as="targetPoint" />
          </mxGeometry>
        </mxCell>
        <mxCell id="4-8IhBOuxSo1LfB9Gyf2-4" value="attach(StoreManager)" style="edgeLabel;html=1;align=center;verticalAlign=middle;resizable=0;points=[];fontSize=16;" vertex="1" connectable="0" parent="4-8IhBOuxSo1LfB9Gyf2-3">
          <mxGeometry x="0.2259" y="1" relative="1" as="geometry">
            <mxPoint x="-67" as="offset" />
          </mxGeometry>
        </mxCell>
        <mxCell id="4-8IhBOuxSo1LfB9Gyf2-5" value="" style="endArrow=open;endFill=1;endSize=12;html=1;rounded=0;fontSize=12;curved=1;entryX=1;entryY=1;entryDx=0;entryDy=-5;entryPerimeter=0;" edge="1" parent="1">
          <mxGeometry width="160" relative="1" as="geometry">
            <mxPoint x="80" y="930" as="sourcePoint" />
            <mxPoint x="-470" y="925" as="targetPoint" />
            <Array as="points">
              <mxPoint x="-190" y="930" />
            </Array>
          </mxGeometry>
        </mxCell>
        <mxCell id="4-8IhBOuxSo1LfB9Gyf2-6" value="notifiyObservers()" style="edgeLabel;html=1;align=center;verticalAlign=middle;resizable=0;points=[];fontSize=16;" vertex="1" connectable="0" parent="4-8IhBOuxSo1LfB9Gyf2-5">
          <mxGeometry x="0.2259" y="1" relative="1" as="geometry">
            <mxPoint x="-79" y="-1" as="offset" />
          </mxGeometry>
        </mxCell>
        <mxCell id="4-8IhBOuxSo1LfB9Gyf2-8" value="" style="endArrow=open;endFill=1;endSize=12;html=1;rounded=0;fontSize=12;curved=1;" edge="1" parent="1">
          <mxGeometry width="160" relative="1" as="geometry">
            <mxPoint x="75" y="240" as="sourcePoint" />
            <mxPoint x="-200" y="240" as="targetPoint" />
          </mxGeometry>
        </mxCell>
        <mxCell id="4-8IhBOuxSo1LfB9Gyf2-9" value="attach(Franchise Manager)" style="edgeLabel;html=1;align=center;verticalAlign=middle;resizable=0;points=[];fontSize=16;" vertex="1" connectable="0" parent="4-8IhBOuxSo1LfB9Gyf2-8">
          <mxGeometry x="0.2259" y="1" relative="1" as="geometry">
            <mxPoint x="34" as="offset" />
          </mxGeometry>
        </mxCell>
        <mxCell id="4-8IhBOuxSo1LfB9Gyf2-12" value="" style="endArrow=open;endFill=1;endSize=12;html=1;rounded=0;fontSize=12;curved=1;" edge="1" parent="1">
          <mxGeometry width="160" relative="1" as="geometry">
            <mxPoint x="70" y="780" as="sourcePoint" />
            <mxPoint x="-200" y="780" as="targetPoint" />
          </mxGeometry>
        </mxCell>
        <mxCell id="4-8IhBOuxSo1LfB9Gyf2-13" value="notifiyObservers()" style="edgeLabel;html=1;align=center;verticalAlign=middle;resizable=0;points=[];fontSize=16;" vertex="1" connectable="0" parent="4-8IhBOuxSo1LfB9Gyf2-12">
          <mxGeometry x="0.2259" y="1" relative="1" as="geometry">
            <mxPoint as="offset" />
          </mxGeometry>
        </mxCell>
        <mxCell id="4-8IhBOuxSo1LfB9Gyf2-14" value="" style="html=1;points=[[0,0,0,0,5],[0,1,0,0,-5],[1,0,0,0,5],[1,1,0,0,-5]];perimeter=orthogonalPerimeter;outlineConnect=0;targetShapes=umlLifeline;portConstraint=eastwest;newEdgeStyle={&quot;curved&quot;:0,&quot;rounded&quot;:0};fontSize=16;" vertex="1" parent="1">
          <mxGeometry x="70" y="180" width="10" height="750" as="geometry" />
        </mxCell>
        <mxCell id="4-8IhBOuxSo1LfB9Gyf2-15" value="" style="html=1;points=[[0,0,0,0,5],[0,1,0,0,-5],[1,0,0,0,5],[1,1,0,0,-5]];perimeter=orthogonalPerimeter;outlineConnect=0;targetShapes=umlLifeline;portConstraint=eastwest;newEdgeStyle={&quot;curved&quot;:0,&quot;rounded&quot;:0};fontSize=16;" vertex="1" parent="1">
          <mxGeometry x="-480" y="180" width="10" height="750" as="geometry" />
        </mxCell>
        <mxCell id="4-8IhBOuxSo1LfB9Gyf2-17" value="" style="endArrow=none;dashed=1;html=1;rounded=0;fontSize=12;startSize=8;endSize=8;curved=1;" edge="1" parent="1" target="4-8IhBOuxSo1LfB9Gyf2-16">
          <mxGeometry width="50" height="50" relative="1" as="geometry">
            <mxPoint x="-207.5" y="1320" as="sourcePoint" />
            <mxPoint x="-205" y="100" as="targetPoint" />
          </mxGeometry>
        </mxCell>
        <mxCell id="4-8IhBOuxSo1LfB9Gyf2-16" value="" style="html=1;points=[[0,0,0,0,5],[0,1,0,0,-5],[1,0,0,0,5],[1,1,0,0,-5]];perimeter=orthogonalPerimeter;outlineConnect=0;targetShapes=umlLifeline;portConstraint=eastwest;newEdgeStyle={&quot;curved&quot;:0,&quot;rounded&quot;:0};fontSize=16;" vertex="1" parent="1">
          <mxGeometry x="-210" y="240" width="10" height="590" as="geometry" />
        </mxCell>
        <mxCell id="4-8IhBOuxSo1LfB9Gyf2-19" value="" style="html=1;align=center;spacingLeft=2;endArrow=open;rounded=0;edgeStyle=orthogonalEdgeStyle;curved=0;rounded=0;fontSize=12;endFill=1;endSize=12;" edge="1" parent="1">
          <mxGeometry width="160" relative="1" as="geometry">
            <mxPoint x="-210" y="830" as="sourcePoint" />
            <mxPoint x="75" y="830" as="targetPoint" />
            <Array as="points">
              <mxPoint x="-210" y="831" />
              <mxPoint x="-67" y="831" />
              <mxPoint x="-67" y="830" />
            </Array>
          </mxGeometry>
        </mxCell>
        <mxCell id="4-8IhBOuxSo1LfB9Gyf2-20" value="restock()" style="edgeLabel;html=1;align=center;verticalAlign=middle;resizable=0;points=[];fontSize=16;" vertex="1" connectable="0" parent="4-8IhBOuxSo1LfB9Gyf2-19">
          <mxGeometry x="0.0234" y="-3" relative="1" as="geometry">
            <mxPoint as="offset" />
          </mxGeometry>
        </mxCell>
        <mxCell id="4-8IhBOuxSo1LfB9Gyf2-26" value="" style="html=1;points=[[0,0,0,0,5],[0,1,0,0,-5],[1,0,0,0,5],[1,1,0,0,-5]];perimeter=orthogonalPerimeter;outlineConnect=0;targetShapes=umlLifeline;portConstraint=eastwest;newEdgeStyle={&quot;curved&quot;:0,&quot;rounded&quot;:0};fontSize=16;" vertex="1" parent="1">
          <mxGeometry x="75" y="870" width="10" height="40" as="geometry" />
        </mxCell>
        <mxCell id="4-8IhBOuxSo1LfB9Gyf2-27" value="update()" style="html=1;align=left;spacingLeft=2;endArrow=block;rounded=0;edgeStyle=orthogonalEdgeStyle;curved=0;rounded=0;fontSize=12;startSize=8;endSize=8;" edge="1" target="4-8IhBOuxSo1LfB9Gyf2-26" parent="1">
          <mxGeometry relative="1" as="geometry">
            <mxPoint x="80" y="850" as="sourcePoint" />
            <Array as="points">
              <mxPoint x="110" y="880" />
            </Array>
          </mxGeometry>
        </mxCell>
        <mxCell id="4-8IhBOuxSo1LfB9Gyf2-28" value="execute()" style="html=1;verticalAlign=bottom;endArrow=block;curved=0;rounded=0;fontSize=12;startSize=8;endSize=8;" edge="1" parent="1">
          <mxGeometry width="80" relative="1" as="geometry">
            <mxPoint x="80" y="310" as="sourcePoint" />
            <mxPoint x="300" y="310" as="targetPoint" />
          </mxGeometry>
        </mxCell>
        <mxCell id="4-8IhBOuxSo1LfB9Gyf2-31" value="executeCommand()" style="html=1;verticalAlign=bottom;endArrow=open;dashed=1;endSize=8;curved=0;rounded=0;fontSize=12;" edge="1" parent="1">
          <mxGeometry relative="1" as="geometry">
            <mxPoint x="295" y="660" as="sourcePoint" />
            <mxPoint x="80" y="660" as="targetPoint" />
          </mxGeometry>
        </mxCell>
        <mxCell id="4-8IhBOuxSo1LfB9Gyf2-34" value="State(full)" style="html=1;whiteSpace=wrap;fontSize=16;" vertex="1" parent="1">
          <mxGeometry x="480" y="45" width="110" height="50" as="geometry" />
        </mxCell>
        <mxCell id="4-8IhBOuxSo1LfB9Gyf2-35" value="State(empty)" style="html=1;whiteSpace=wrap;fontSize=16;" vertex="1" parent="1">
          <mxGeometry x="690" y="45" width="110" height="50" as="geometry" />
        </mxCell>
        <mxCell id="4-8IhBOuxSo1LfB9Gyf2-36" value="" style="endArrow=none;dashed=1;html=1;rounded=0;fontSize=12;startSize=8;endSize=8;curved=1;entryX=0.5;entryY=1;entryDx=0;entryDy=0;" edge="1" parent="1" source="4-8IhBOuxSo1LfB9Gyf2-42">
          <mxGeometry width="50" height="50" relative="1" as="geometry">
            <mxPoint x="534.5" y="1160" as="sourcePoint" />
            <mxPoint x="534.5" y="95" as="targetPoint" />
          </mxGeometry>
        </mxCell>
        <mxCell id="4-8IhBOuxSo1LfB9Gyf2-37" value="" style="endArrow=none;dashed=1;html=1;rounded=0;fontSize=12;startSize=8;endSize=8;curved=1;entryX=0.5;entryY=1;entryDx=0;entryDy=0;" edge="1" parent="1" source="4-8IhBOuxSo1LfB9Gyf2-44">
          <mxGeometry width="50" height="50" relative="1" as="geometry">
            <mxPoint x="744.5" y="1160" as="sourcePoint" />
            <mxPoint x="744.5" y="95" as="targetPoint" />
          </mxGeometry>
        </mxCell>
        <mxCell id="4-8IhBOuxSo1LfB9Gyf2-38" value="getCurrentStock()" style="html=1;verticalAlign=bottom;endArrow=block;curved=0;rounded=0;fontSize=12;startSize=8;endSize=8;" edge="1" parent="1">
          <mxGeometry width="80" relative="1" as="geometry">
            <mxPoint x="300" y="380" as="sourcePoint" />
            <mxPoint x="530" y="380" as="targetPoint" />
            <mxPoint as="offset" />
          </mxGeometry>
        </mxCell>
        <mxCell id="4-8IhBOuxSo1LfB9Gyf2-40" value="" style="endArrow=none;dashed=1;html=1;rounded=0;entryX=0.569;entryY=1.008;entryDx=0;entryDy=0;entryPerimeter=0;" edge="1" parent="1" target="4-8IhBOuxSo1LfB9Gyf2-39">
          <mxGeometry width="50" height="50" relative="1" as="geometry">
            <mxPoint x="305" y="1155" as="sourcePoint" />
            <mxPoint x="304.5" y="95" as="targetPoint" />
          </mxGeometry>
        </mxCell>
        <mxCell id="4-8IhBOuxSo1LfB9Gyf2-39" value="" style="html=1;points=[[0,0,0,0,5],[0,1,0,0,-5],[1,0,0,0,5],[1,1,0,0,-5]];perimeter=orthogonalPerimeter;outlineConnect=0;targetShapes=umlLifeline;portConstraint=eastwest;newEdgeStyle={&quot;curved&quot;:0,&quot;rounded&quot;:0};fontSize=16;" vertex="1" parent="1">
          <mxGeometry x="300" y="310" width="10" height="350" as="geometry" />
        </mxCell>
        <mxCell id="4-8IhBOuxSo1LfB9Gyf2-43" value="" style="endArrow=none;dashed=1;html=1;rounded=0;fontSize=12;startSize=8;endSize=8;curved=1;entryX=0.5;entryY=1;entryDx=0;entryDy=0;" edge="1" parent="1" target="4-8IhBOuxSo1LfB9Gyf2-42">
          <mxGeometry width="50" height="50" relative="1" as="geometry">
            <mxPoint x="534.5" y="1160" as="sourcePoint" />
            <mxPoint x="534.5" y="95" as="targetPoint" />
          </mxGeometry>
        </mxCell>
        <mxCell id="4-8IhBOuxSo1LfB9Gyf2-42" value="" style="html=1;points=[[0,0,0,0,5],[0,1,0,0,-5],[1,0,0,0,5],[1,1,0,0,-5]];perimeter=orthogonalPerimeter;outlineConnect=0;targetShapes=umlLifeline;portConstraint=eastwest;newEdgeStyle={&quot;curved&quot;:0,&quot;rounded&quot;:0};fontSize=16;" vertex="1" parent="1">
          <mxGeometry x="530" y="380" width="10" height="80" as="geometry" />
        </mxCell>
        <mxCell id="4-8IhBOuxSo1LfB9Gyf2-45" value="" style="endArrow=none;dashed=1;html=1;rounded=0;fontSize=12;startSize=8;endSize=8;curved=1;entryX=0.5;entryY=1;entryDx=0;entryDy=0;" edge="1" parent="1" target="4-8IhBOuxSo1LfB9Gyf2-44">
          <mxGeometry width="50" height="50" relative="1" as="geometry">
            <mxPoint x="744.5" y="1160" as="sourcePoint" />
            <mxPoint x="744.5" y="95" as="targetPoint" />
          </mxGeometry>
        </mxCell>
        <mxCell id="4-8IhBOuxSo1LfB9Gyf2-44" value="" style="html=1;points=[[0,0,0,0,5],[0,1,0,0,-5],[1,0,0,0,5],[1,1,0,0,-5]];perimeter=orthogonalPerimeter;outlineConnect=0;targetShapes=umlLifeline;portConstraint=eastwest;newEdgeStyle={&quot;curved&quot;:0,&quot;rounded&quot;:0};fontSize=16;" vertex="1" parent="1">
          <mxGeometry x="740" y="530" width="10" height="80" as="geometry" />
        </mxCell>
        <mxCell id="4-8IhBOuxSo1LfB9Gyf2-46" value="getCurrentStock()" style="html=1;verticalAlign=bottom;endArrow=block;curved=0;rounded=0;fontSize=12;startSize=8;endSize=8;" edge="1" parent="1" target="4-8IhBOuxSo1LfB9Gyf2-44">
          <mxGeometry width="80" relative="1" as="geometry">
            <mxPoint x="310" y="530" as="sourcePoint" />
            <mxPoint x="740" y="525" as="targetPoint" />
            <mxPoint as="offset" />
          </mxGeometry>
        </mxCell>
        <mxCell id="4-8IhBOuxSo1LfB9Gyf2-47" value="setState" style="html=1;verticalAlign=bottom;endArrow=open;dashed=1;endSize=8;curved=0;rounded=0;fontSize=12;" edge="1" parent="1" source="4-8IhBOuxSo1LfB9Gyf2-42">
          <mxGeometry relative="1" as="geometry">
            <mxPoint x="390" y="460" as="sourcePoint" />
            <mxPoint x="310" y="460" as="targetPoint" />
          </mxGeometry>
        </mxCell>
        <mxCell id="4-8IhBOuxSo1LfB9Gyf2-49" value="setState" style="html=1;verticalAlign=bottom;endArrow=open;dashed=1;endSize=8;curved=0;rounded=0;fontSize=12;exitX=0;exitY=1;exitDx=0;exitDy=0;exitPerimeter=0;" edge="1" parent="1" source="4-8IhBOuxSo1LfB9Gyf2-44">
          <mxGeometry relative="1" as="geometry">
            <mxPoint x="530" y="610" as="sourcePoint" />
            <mxPoint x="310" y="610" as="targetPoint" />
          </mxGeometry>
        </mxCell>
      </root>
    </mxGraphModel>
  </diagram>
</mxfile>
